inDegrees=no
num_controls=7
num_derivatives=13
num_iterations=129
num_multipliers=7
num_parameters=0
num_slacks=7
num_states=26
objective=5.381594
objective_accelerations=0.684532
objective_balance=0.040883
objective_effort=0.282177
objective_height=4.280233
objective_ligament=0.093769
solver_duration=1454.886372
status=Solve_Succeeded
success=true
DataType=double
version=3
OpenSimVersion=4.4-2022-07-23-0e9fedc
endheader
time	/jointset/ground_pelvis/pelvis_tilt/value	/jointset/ground_pelvis/pelvis_tx/value	/jointset/ground_pelvis/pelvis_ty/value	/jointset/hip_l/hip_flexion_l/value	/jointset/hip_l/hip_adduction_l/value	/jointset/hip_l/hip_rotation_l/value	/jointset/back/lumbar_extension/value	/jointset/patellofemoral_l/patellar_flexion_l/value	/jointset/knee_l/knee_flexion_l/value	/jointset/knee_l/knee_adduction_l/value	/jointset/knee_l/knee_rotation_l/value	/jointset/ankle_l/ankle_angle_l/value	/jointset/subtalar_l/subtalar_angle_l/value	/jointset/ground_pelvis/pelvis_tilt/speed	/jointset/ground_pelvis/pelvis_tx/speed	/jointset/ground_pelvis/pelvis_ty/speed	/jointset/hip_l/hip_flexion_l/speed	/jointset/hip_l/hip_adduction_l/speed	/jointset/hip_l/hip_rotation_l/speed	/jointset/back/lumbar_extension/speed	/jointset/patellofemoral_l/patellar_flexion_l/speed	/jointset/knee_l/knee_flexion_l/speed	/jointset/knee_l/knee_adduction_l/speed	/jointset/knee_l/knee_rotation_l/speed	/jointset/ankle_l/ankle_angle_l/speed	/jointset/subtalar_l/subtalar_angle_l/speed	/forceset/tau_hip_flexion_l	/forceset/tau_hip_adduction_l	/forceset/tau_hip_rotation_l	/forceset/tau_knee_flexion_l	/forceset/tau_ankle_angle_l	/forceset/tau_subtalar_angle_l	/forceset/tau_lumbar_extension	lambda_cid13_p0	lambda_cid13_p1	lambda_cid13_p2	lambda_cid13_p3	lambda_cid13_p4	lambda_cid13_p5	lambda_cid14_p0	/jointset/ground_pelvis/pelvis_tilt/accel	/jointset/ground_pelvis/pelvis_tx/accel	/jointset/ground_pelvis/pelvis_ty/accel	/jointset/hip_l/hip_flexion_l/accel	/jointset/hip_l/hip_adduction_l/accel	/jointset/hip_l/hip_rotation_l/accel	/jointset/back/lumbar_extension/accel	/jointset/patellofemoral_l/patellar_flexion_l/accel	/jointset/knee_l/knee_flexion_l/accel	/jointset/knee_l/knee_adduction_l/accel	/jointset/knee_l/knee_rotation_l/accel	/jointset/ankle_l/ankle_angle_l/accel	/jointset/subtalar_l/subtalar_angle_l/accel	gamma_cid13_p0	gamma_cid13_p1	gamma_cid13_p2	gamma_cid13_p3	gamma_cid13_p4	gamma_cid13_p5	gamma_cid14_p0
0.5	-0.3617170116208517	-0.05270918389032989	0.7623673893673281	1.11398320142533	-0.432896706376281	-0.2391099589209524	-0.2544617236908147	0.7636195530888864	0.7636195530888811	-0.1331181002508421	-0.160747108386952	0.06597545284629823	-0.05020094296645471	-0.8309676180038775	-0.2493962388945442	-0.517800606180256	2.510520326942983	-0.2052536638557353	0.7169931929676477	-0.1145235722064862	1.880802014621207	1.880802014621201	0.1126371164583287	-0.07862787203532925	0.3577793484561152	-0.05388148413987512	-0.1775426236647229	0.01487750420756783	-0.01096762652270591	-0.2115357898055336	0.08641216106844909	0.04832319025275388	0.1727309686057967	-5.298161178641871	-23.08624350245436	6.802396617948512	-8.663975893970644	-522.942417049843	-64.41385607021758	-27.24135533229059	0.8071676242901747	0.6538497945404412	-0.4325250041499196	-1.394744955995951	0.7011072489129032	-0.1618686840453612	1.093647301872225	-1.134063380553649	-1.134063380553648	0.06095314740899011	0.1819231798150973	-0.3379933808943726	0.5674318239047768	-4.694951624761552e-07	-6.52200025432862e-07	1.994088783623924e-06	4.124352598879329e-08	-5.348470776392095e-07	1.10535265402371e-07	-3.987523373992651e-07
0.51	-0.3699842453989119	-0.05517026617708458	0.7571688618512784	1.139013808802506	-0.4349153234718179	-0.231947740830081	-0.2555536204178965	0.7823679723806142	0.7823679723805714	-0.1319924396936001	-0.1615243330560786	0.06953510216557969	-0.05071326707517105	-0.8223528011533343	-0.2428092989378942	-0.5217985152768801	2.495271711590226	-0.1984502557519255	0.7153435339428924	-0.1039043535820119	1.868635125109239	1.868635125109219	0.1125034700997387	-0.0768190581632182	0.3540746838883265	-0.0485935073053005	-0.183590445261537	0.01599453997187671	-0.01101843732252284	-0.213176589005473	0.08527465396630564	0.04892219216163848	0.1772516325463296	-5.858711728271959	-23.22216032137774	6.79427361404782	-8.310576672128112	-526.3671255400996	-63.99007471742516	-26.38553036941828	0.9075317299484384	0.6627692577349501	-0.3675783971262616	-1.639403122841298	0.6726854725736121	-0.1829060597172093	1.038772087451699	-1.29492552187649	-1.294925521878311	-0.04925650113764867	0.1805211407901442	-0.3980835013569115	0.5077907027700177	-4.841424440368402e-07	-5.11930169865527e-07	2.184064890747289e-06	8.489317586591997e-08	-5.332277382810329e-07	1.60018675426408e-07	-4.038418265304595e-07
0.52	-0.3781615524055897	-0.05756514843197078	0.751933524337319	1.163882033366546	-0.436865360910029	-0.2248052976390614	-0.2565407823697987	0.8009873380201061	0.8009873380201104	-0.1308678621945839	-0.1622834374566282	0.07305542873785466	-0.05117304939763448	-0.8129822637222398	-0.2361562325208464	-0.525162605761917	2.47804376432047	-0.1915377323897516	0.7130382129970557	-0.09357661716884526	1.854991284182929	1.854991284182895	0.1124205047953499	-0.07500381829585234	0.3499147990550953	-0.04337312688927707	-0.1896382668584418	0.01711157573616177	-0.01106924812142137	-0.2148173882055014	0.08413714686415331	0.04952119407051274	0.1817722964867811	-6.42189517480446	-23.35857156994716	6.787322096291391	-7.991432203364523	-529.8589489913076	-63.62357078976861	-25.53090381184984	0.9583117404007097	0.6670750866199496	-0.305761281832491	-1.790611339395468	0.7229303005857405	-0.2930010682616429	1.035350859610864	-1.42945366342213	-1.429453663422154	0.07108935824921341	0.183208378866062	-0.4290374339829805	0.5539125401945038	-4.45273744173944e-07	-3.713809776304614e-07	2.116937067085585e-06	1.025189345171449e-07	-4.811809280061736e-07	1.991720356102881e-07	-3.711310786311298e-07
0.53	-0.3862417324843966	-0.05989310717832145	0.746667750163004	1.188568454080937	-0.4387456193326505	-0.2176887386805662	-0.2574260420688676	0.8194630748865034	0.8194630748865324	-0.1297437365264014	-0.1630239343916127	0.07653220777509818	-0.05158067698980102	-0.8029439141553486	-0.2294170458236986	-0.5278793285380172	2.458906802705378	-0.1845067293206581	0.7101838747118787	-0.08353733960844965	1.83991528788438	1.839915287884362	0.1123876688441346	-0.07308802975509179	0.3453873718604492	-0.03816459398773112	-0.1950701189286284	0.01735203477962199	-0.01114750827870589	-0.2175793927988478	0.08455109777857624	0.05001804743746197	0.185839882128809	-6.49393374697334	-23.54369357430782	6.796219849769567	-8.074886928454436	-533.4042837125771	-63.35284762916086	-24.67789336095634	1.043016530134514	0.6801334554200035	-0.2377834596376277	-2.025339477855087	0.6940476706041736	-0.2954052079062045	0.978913660233512	-1.58272200515739	-1.582722005154855	-0.04298258171864843	0.1973195279215263	-0.4726334544730181	0.5022986441159776	-4.17802094533923e-07	-2.908238786117521e-07	2.056672903882194e-06	1.106394862888317e-07	-4.422465700073054e-07	2.384793207697308e-07	-3.505318468614146e-07
0.54	-0.3942182450744939	-0.0621531154588688	0.7413781776240979	1.213053484998101	-0.440555395252465	-0.2106034741047602	-0.2582127695011469	0.8377808419115	0.8377808419115649	-0.1286204417197353	-0.1637449623539231	0.07996210492194515	-0.05193662425715589	-0.7922487659763729	-0.2225661393601841	-0.5299222786798283	2.437765804878725	-0.1774412318302606	0.7067793364562874	-0.07387016380884634	1.823397315902367	1.823397315902364	0.1122543324964609	-0.07111002376470676	0.3405384209750902	-0.03303706192692682	-0.2005019709988766	0.01759249382316253	-0.01122576843629099	-0.2203413973921783	0.0849650486930278	0.05051490080451639	0.1899074677707331	-6.570436422300372	-23.72921080874713	6.806526117827208	-8.185661164677436	-537.0435152730563	-63.13370045375517	-23.8273754741757	1.089671462817813	0.6894190398932545	-0.1710067549746648	-2.191418581707309	0.7298291848464965	-0.4030410623445451	0.9609305074525784	-1.717848800115018	-1.717848800115019	0.0509892789574849	0.1956518687909821	-0.4933421721256274	0.5377123720461537	-4.02939947268147e-07	-2.76641010385608e-07	2.00400257778162e-06	1.082436389597528e-07	-4.178196060159169e-07	2.779569059021366e-07	-3.433325903840394e-07
0.55	-0.4020846224019703	-0.06434420213229589	0.7360715375317449	1.237317447788242	-0.4422943031005137	-0.2035550669361637	-0.2589047610551596	0.8559264199864487	0.8559264199864892	-0.1274987231811116	-0.1644459795882469	0.08334190156265509	-0.05224165839765082	-0.7809179396332936	-0.2156466356414506	-0.5312925044549477	2.41471153340746	-0.1703340324409583	0.7028077238338395	-0.06460692411287246	1.80548933984724	1.805489339847228	0.1120855583716639	-0.06908663655276341	0.3353632111186536	-0.0279848776077124	-0.2060175753485574	0.01803532087762058	-0.01123222525810596	-0.2226032956824264	0.08463707861488579	0.05081813503412912	0.193959191808595	-6.881944227163299	-23.78096369250663	6.785764603136347	-7.974165265417525	-540.5427026731394	-62.71897567162105	-22.98053543405375	1.171049833545644	0.6939213778484872	-0.1031260874905489	-2.409774691179814	0.7018983112445709	-0.4086586218407505	0.8972041333217545	-1.861548013112654	-1.861548013113769	-0.05136067237476077	0.2071060409697641	-0.5382561183592136	0.4865177244885174	-3.892687823847071e-07	-2.315328063460904e-07	1.984563882453784e-06	1.181466821315278e-07	-3.978018333924576e-07	3.177912436076514e-07	-3.340794245233177e-07
